<?xml version="1.0" encoding="UTF-8"?>
<svg width="458px" height="88px" viewBox="0 0 458 88" version="1.1" xmlns="http://www.w3.org/2000/svg" xmlns:xlink="http://www.w3.org/1999/xlink">
    <!-- Generator: Sketch 50.2 (55047) - http://www.bohemiancoding.com/sketch -->
    <title>final</title>
    <desc>Created with Sketch.</desc>
    <defs>
        <path d="M180,87 C161.774603,87 147,72.2253967 147,54 C147,35.7746033 161.774603,21 180,21 C198.225397,21 213,35.7746033 213,54 C213,72.2253967 198.225397,87 180,87 Z M180,73 C190.49341,73 199,64.4934102 199,54 C199,43.5065898 190.49341,35 180,35 C169.50659,35 161,43.5065898 161,54 C161,64.4934102 169.50659,73 180,73 Z" id="path-1"></path>
        <path d="M186,64.7454751 C202,82 211,71.2006215 211,67.5633484 C211,64.8054161 209.875566,62.2104072 199.437783,59 C188,55 180,49 180,38.3846154 C180,28 185,19 198.020362,19 C207.69311,19 212,22 219,34 C213.666667,36.6666667 209.666667,38.3815988 207,39.1447964 C203,31 194,30 194,38.1447964 C194,41 197.233032,43.8382353 204.116516,47 C211,50.1617647 216.066729,51.5354362 218.704751,53.2941176 C222.901605,56.05205 225,60.3887336 225,66.3042986 C225,72.0200135 222.831658,76.9562386 218.49491,81.1131222 C205,92 187,88 176,74 L186,64.7454751 Z" id="path-3"></path>
    </defs>
    <g id="Page-1" stroke="none" stroke-width="1" fill="none" fill-rule="evenodd">
        <g id="final">
            <g id="niko">
                <polygon id="Path-3" fill="#000000" points="0 0 0 87 14 87 14 20 42 50 42 87 56 87 56 0 42 0 42 30 14 0"></polygon>
                <polygon id="Path-4" fill="#000000" points="66 21 80 21 80 87 66 87"></polygon>
                <circle id="Oval-2" fill="#000000" cx="73" cy="9" r="9"></circle>
                <path d="M90,0 L90,87 L104,87 L104,57 L133,87 L143,77 L112,44.5 C122,38.1666667 130.333333,28.3333333 137,15 C129,10.3333333 125,8 125,8 C119.666667,18.6666667 112.666667,26.6666667 104,32 C104,28.6666667 104,18 104,0 L90,0 Z" id="Path-5" fill="#000000"></path>
                <polygon id="Path-6" fill="#C0392B" points="147 0 147 14 213 14 213 0"></polygon>
                <mask id="mask-2" fill="white">
                    <use xlink:href="#path-1"></use>
                </mask>
                <use id="Oval-3" fill="#000000" xlink:href="#path-1"></use>
            </g>
            <g id="labs" transform="translate(233.000000, 0.000000)" fill="#000000">
                <path d="M93.1769761,41.0267876 C87.035908,35.2897293 74.0642028,35 58.0332807,35 C59.3576051,30 58.0536889,35 62.0266619,21 C93.3884772,21 111.026662,27.8571429 111.026662,51 C111.026662,57.8569477 111.026662,69.8569477 111.026662,87 L97.0266619,87 L97.0266619,69 C97.0280772,69.8571497 97.0280772,74.5238164 97.0266619,83 C85.3567978,86.4516873 77.2148599,87.4516873 72.6008483,86 C56.7089564,81 58.0266619,69.8571772 58.0266619,66 C58.0266619,54 72.6008483,48 93.0266619,41 C93.0772631,41.0084335 93.1273664,41.0173649 93.1769761,41.0267876 Z M97.0266619,69 C97.0266619,69 75.3839873,78.6053699 72.0266619,71 C68.0536889,59 92.0266619,55 97.0266619,54 Z" id="Oval-3"></path>
                <path d="M159.000007,82.5851822 C155.175752,85.3929923 150.735736,87 146,87 C131.640597,87 120,72.2253967 120,54 C120,35.7746033 131.640597,21 146,21 C150.735736,21 155.175752,22.6070077 159.000007,25.4148178 L159,0 L173,0 L173,87 L159,87 L159,82.5851876 Z M146,73 C153.179702,73 159,64.4934102 159,54 C159,43.5065898 153.179702,35 146,35 C138.820298,35 133,43.5065898 133,54 C133,64.4934102 138.820298,73 146,73 Z" id="Oval-3" transform="translate(146.500000, 43.500000) scale(-1, 1) translate(-146.500000, -43.500000) "></path>
                <polygon id="Path-5" points="0 0 0 87 53 87 53 73 14 73 14 0"></polygon>
                <g id="s">
                    <use xlink:href="#path-3"></use>
                    <use xlink:href="#path-3"></use>
                </g>
            </g>
        </g>
    </g>
</svg>